<svg width="96" height="96" viewBox="0 0 96 96" fill="none" xmlns="http://www.w3.org/2000/svg">
<rect width="96" height="96" rx="24" fill="#755AFD"/>
<path d="M26.0001 19.9998H59.0001L70.0001 31.9998V75.9998H26.0001V19.9998Z" fill="white"/>
<path fill-rule="evenodd" clip-rule="evenodd" d="M38 36C36.8954 36 36 36.8954 36 38C36 39.1046 36.8954 40 38 40H44C45.1046 40 46 39.1046 46 38C46 36.8954 45.1046 36 44 36H38ZM36 54C36 52.8954 36.8954 52 38 52H54C55.1046 52 56 52.8954 56 54C56 55.1046 55.1046 56 54 56H38C36.8954 56 36 55.1046 36 54ZM36 62C36 60.8954 36.8954 60 38 60H48C49.1046 60 50 60.8954 50 62C50 63.1046 49.1046 64 48 64H38C36.8954 64 36 63.1046 36 62Z" fill="#2100C3"/>
<path d="M34.0001 45.9999L19.228 57.4893C17.9143 58.5111 16.0001 57.5749 16.0001 55.9106L16.0001 36.0892C16.0001 34.4249 17.9143 33.4887 19.228 34.5105L34.0001 45.9999Z" fill="#BFBFFF"/>
<path d="M60.0001 61.6699L76.8353 49.6075C78.1587 48.6593 80.0001 49.6052 80.0001 51.2333L80.0001 72.1065C80.0001 73.7346 78.1587 74.6805 76.8353 73.7323L60.0001 61.6699Z" fill="#2100C4"/>
<path fill-rule="evenodd" clip-rule="evenodd" d="M70.0001 33.9998V32.5515C70.0001 31.6781 69.7114 30.8324 69.1842 30.1614L62.2556 21.3431C61.5868 20.492 60.5961 19.9998 59.5514 19.9998H58.0001L58.0003 29.9999C58.0003 32.209 59.7911 33.9998 62.0003 33.9998H70.0001Z" fill="#BFBFFF"/>
</svg>
