<?xml version="1.0" encoding="UTF-8"?> <svg xmlns="http://www.w3.org/2000/svg" width="293" height="293" viewBox="0 0 293 293" fill="none"> <path d="M122.872 149.24H96.6708C96.4035 149.24 96.2698 149.374 96.1361 149.641C95.4677 161.538 93.1951 174.238 89.9868 184.665C89.9868 184.799 89.9868 184.932 90.1205 185.066C90.2542 185.2 90.3879 185.2 90.5216 185.2H99.4781C99.7454 185.2 99.8791 185.066 99.8791 184.932C102.419 176.912 104.424 166.485 105.226 157.662H113.782V184.799C113.782 185.066 114.049 185.333 114.317 185.333H122.872C123.139 185.333 123.407 185.066 123.407 184.799V149.641C123.407 149.374 123.139 149.24 122.872 149.24V149.24ZM233.692 149.24H225.137C224.869 149.24 224.602 149.507 224.602 149.775V176.912C222.731 177.446 220.859 177.714 218.72 177.714C213.106 177.714 211.769 175.976 211.769 168.49V149.775C211.769 149.507 211.502 149.24 211.234 149.24H202.812C202.545 149.24 202.278 149.507 202.278 149.775V169.426C202.278 181.724 206.422 186.403 216.982 186.403C222.998 186.403 229.816 184.799 233.826 183.328C233.96 183.195 234.093 183.061 234.093 182.927V149.775C234.227 149.374 233.96 149.24 233.692 149.24V149.24ZM52.4229 149.24H43.7337C43.4664 149.24 43.3327 149.374 43.3327 149.641C41.9959 154.988 39.1886 164.078 35.4456 173.57L26.7564 149.641C26.6228 149.507 26.4891 149.374 26.3554 149.374H17.5325C17.3989 149.374 17.2652 149.507 17.1315 149.641C16.9978 149.775 16.9978 149.908 17.1315 150.042L30.2321 185.868C28.8953 188.675 27.6922 190.948 26.4891 193.087C25.5533 194.691 24.7512 196.295 23.9492 197.899C23.8155 198.033 23.8155 198.167 23.9492 198.3C24.0828 198.434 24.2165 198.568 24.3502 198.568H33.8414C33.9751 198.568 34.2425 198.434 34.2425 198.3C35.8466 195.226 37.8518 190.948 39.7233 186.537C45.3379 173.436 49.7493 161.137 53.0913 149.908C53.0913 149.775 53.0913 149.641 52.9576 149.507C52.6903 149.24 52.5566 149.24 52.4229 149.24V149.24ZM83.5702 176.912C83.5702 176.778 83.4365 176.644 83.3029 176.644H82.9018C80.763 177.446 76.8862 177.981 74.2127 177.981C68.1971 177.981 65.3898 176.377 65.3898 167.287C65.3898 159.934 66.3256 156.592 74.2127 156.592C76.4852 156.592 78.4904 156.86 81.164 157.662C81.4314 157.662 81.565 157.662 81.6987 157.394C82.6345 155.523 83.8376 153.25 85.1744 150.443V150.042C85.1744 149.908 85.0407 149.775 84.907 149.775C81.4314 148.705 77.2873 148.037 73.5443 148.037C61.1121 148.037 55.4975 153.919 55.4975 167.153C55.4975 180.521 61.1121 186.537 73.5443 186.537C76.6189 186.537 82.9018 185.868 85.8428 184.665C86.1101 184.531 86.2438 184.264 86.1101 183.997L83.5702 176.912V176.912ZM164.981 149.24H156.292C156.025 149.24 155.891 149.374 155.891 149.641C154.554 155.122 151.747 164.078 148.004 173.57L139.315 149.641C139.181 149.507 139.047 149.374 138.914 149.374H130.091C129.957 149.374 129.823 149.507 129.69 149.641C129.556 149.775 129.556 149.908 129.69 150.042L142.79 185.868C141.453 188.675 140.25 190.948 139.047 193.087C138.111 194.691 137.309 196.295 136.507 198.033C136.374 198.167 136.374 198.3 136.507 198.434C136.641 198.568 136.775 198.701 136.908 198.701H146.4C146.533 198.701 146.801 198.568 146.801 198.434C148.405 195.359 150.41 191.082 152.281 186.67C157.762 173.57 162.307 161.271 165.649 150.042C165.649 149.908 165.649 149.775 165.516 149.641C165.248 149.24 165.115 149.24 164.981 149.24V149.24ZM197.064 149.24H171.799C171.531 149.24 171.264 149.507 171.264 149.775V184.932C171.264 185.2 171.531 185.467 171.799 185.467H180.354C180.622 185.467 180.889 185.2 180.889 184.932V157.795H194.123C194.257 157.795 194.524 157.662 194.524 157.528C195.594 155.122 196.529 152.582 197.599 150.042V149.641C197.332 149.24 197.198 149.24 197.064 149.24" fill="#EF4058"></path> <path d="M62.5847 95.2337C50.2862 95.2337 45.4737 100.581 45.4737 114.082C45.4737 127.851 50.2862 133.199 62.5847 133.199C75.0169 133.199 79.8294 127.851 79.8294 114.082C79.8294 100.447 75.0169 95.2337 62.5847 95.2337ZM62.5847 125.312C56.9702 125.312 55.2323 123.841 55.2323 114.216C55.2323 104.057 57.1039 103.121 62.5847 103.121C68.1992 103.121 70.0708 104.057 70.0708 114.216C70.0708 123.841 68.3329 125.312 62.5847 125.312ZM114.051 123.841C114.051 123.707 113.918 123.574 113.784 123.574H113.383C111.244 124.376 107.367 124.911 104.694 124.911C98.6782 124.911 95.8709 123.306 95.8709 114.216C95.8709 106.864 96.8067 103.522 104.694 103.522C106.966 103.522 108.972 103.789 111.645 104.591C111.912 104.591 112.046 104.591 112.18 104.324C113.116 102.452 114.319 100.18 115.655 97.3725V96.9715C115.655 96.8378 115.522 96.7041 115.388 96.7041C111.912 95.6347 107.768 94.9663 104.025 94.9663C91.5932 94.9663 85.9786 100.848 85.9786 114.082C85.9786 127.45 91.5932 133.466 104.025 133.466C107.1 133.466 113.383 132.798 116.324 131.594C116.591 131.461 116.725 131.193 116.591 130.926L114.051 123.841V123.841ZM42.8001 96.1694H17.5347C17.2674 96.1694 17 96.4368 17 96.7041V131.862C17 132.129 17.2674 132.397 17.5347 132.397H26.0902C26.3576 132.397 26.6249 132.129 26.6249 131.862V104.591H39.7255C39.8592 104.591 40.1266 104.458 40.1266 104.324C41.196 101.918 42.1317 99.3777 43.2012 96.8378V96.4368C43.0675 96.3031 42.9338 96.1694 42.8001 96.1694Z" fill="#1466AC"></path> <path d="M273.665 181.591V181.056C273.665 180.789 273.665 180.388 273.799 180.12C274.2 175.174 274.467 169.158 274.734 162.207V161.672C274.868 156.994 275.002 151.914 275.002 146.7C275.002 141.487 274.868 136.407 274.734 131.728V131.193C274.467 124.376 274.2 118.227 273.799 113.28C273.799 113.013 273.799 112.612 273.665 112.345V111.81C273.665 111.275 273.531 110.874 273.531 110.339V109.805C273.13 104.591 272.863 101.383 272.729 101.116C272.729 100.581 272.596 100.046 272.596 99.6451V99.2441C272.462 98.3083 272.328 97.5062 272.061 96.5705C272.061 96.4368 272.061 96.3031 271.927 96.1694C269.655 85.3414 263.639 73.4439 256.153 64.4874C253.212 61.0117 250.137 57.9371 246.929 55.5309C246.662 55.2635 242.919 52.5899 237.037 48.4458C230.219 43.7671 220.461 37.2168 209.365 30.8001C189.581 19.17 172.069 11.0156 169.662 10.0798C169.529 10.0798 169.529 9.94614 169.529 9.94614C164.315 7.67359 158.032 6.06944 151.215 5.40104C149.878 5.26736 148.541 5.13368 147.204 5.13368C145.867 5 144.664 5 143.461 5H141.59C132.499 5.26736 124.078 6.87151 117.394 9.94614C116.458 10.3472 98.6786 18.5016 78.493 30.3991L77.6909 30.8001C56.9706 42.965 40.7953 54.9961 40.1269 55.5309C35.0471 59.2739 30.502 64.0863 26.358 70.2356C25.4222 71.5724 25.4222 75.0481 29.4326 75.0481H39.7259C44.1373 75.0481 45.2068 72.3745 50.1529 68.7651C55.6338 64.7547 66.4618 56.734 86.2464 44.9702C100.55 36.5484 113.918 29.8644 120.468 26.7898C120.602 26.7898 120.736 26.6561 120.869 26.6561C120.869 26.6561 121.003 26.6561 121.003 26.5224C121.003 26.5224 121.137 26.5224 121.137 26.3887C121.27 26.3887 121.404 26.255 121.404 26.255C121.538 26.255 121.671 26.1214 121.805 26.1214C123.409 25.3193 124.479 24.9182 124.479 24.9182C129.024 22.9131 135.44 21.5763 142.258 21.4426H144.932C146.937 21.4426 148.942 21.5763 150.814 21.8436C154.958 22.3783 158.701 23.1804 161.775 24.5172C162.043 24.6509 162.444 24.7846 162.711 24.9182C162.711 24.9182 162.845 25.0519 163.246 25.1856C166.32 26.5224 182.897 34.4095 200.943 44.9702C211.638 51.2531 221.129 57.536 227.679 62.0812C233.428 66.0915 236.903 68.6314 237.037 68.7651C239.577 70.6366 242.117 73.3102 244.523 76.2512C250.538 84.0046 255.485 94.5653 256.287 102.72C256.287 102.853 256.688 106.062 257.089 111.543C257.089 111.944 257.089 112.211 257.222 112.612V113.414C257.222 113.949 257.356 114.35 257.356 114.885V115.419C257.356 115.687 257.356 116.088 257.49 116.355C257.49 117.023 257.624 117.692 257.624 118.36C257.624 118.761 257.624 119.162 257.757 119.563V119.831C257.757 120.365 257.757 120.766 257.891 121.301V122.371C258.292 129.322 258.559 137.61 258.559 146.299C258.559 154.988 258.292 163.277 257.891 170.228V171.297C257.891 171.832 257.891 172.233 257.757 172.768V173.035C257.757 173.436 257.757 173.837 257.624 174.238C257.624 174.907 257.49 175.575 257.49 176.243C257.49 176.644 257.49 176.912 257.356 177.179V177.714C257.356 178.249 257.222 178.65 257.222 179.184V179.986C257.222 180.388 257.222 180.789 257.089 181.056C256.688 186.537 256.287 189.879 256.287 189.879C255.485 198.033 250.538 208.594 244.523 216.347C242.117 219.422 239.577 221.962 237.037 223.833C236.903 223.833 233.428 226.507 227.679 230.517C221.129 235.062 211.504 241.345 200.943 247.628C182.897 258.323 166.187 266.076 163.246 267.413L162.711 267.68C162.444 267.814 162.043 267.948 161.775 268.081C158.701 269.284 154.958 270.22 150.814 270.755C148.942 271.022 146.937 271.156 144.932 271.156H142.258C135.44 271.022 129.024 269.819 124.479 267.68C124.479 267.68 123.543 267.279 121.805 266.477C121.671 266.343 121.404 266.343 121.27 266.21C121.137 266.076 121.003 266.076 120.869 265.942C120.736 265.942 120.736 265.809 120.602 265.809C120.468 265.809 120.335 265.675 120.201 265.675C120.067 265.541 119.934 265.541 119.666 265.408H119.533C112.715 262.734 99.8817 256.317 86.2464 248.297C66.3281 236.667 55.6338 228.512 50.1529 224.502C45.2068 220.892 44.1373 218.219 39.7259 218.219H29.4326C25.4222 218.219 25.4222 221.694 26.358 223.031C30.502 229.181 35.0471 233.993 40.1269 237.736C40.7953 238.271 57.1042 250.302 77.6909 262.467C78.7603 263.135 79.8298 263.804 81.0329 264.338C100.149 275.3 116.592 282.786 117.527 283.321C124.078 286.262 132.633 288 141.723 288.267H143.595C144.798 288.267 146.001 288.267 147.204 288.133C148.541 288.133 149.878 288 151.215 287.866C158.032 287.197 164.449 285.593 169.529 283.321C169.529 283.321 169.662 283.321 169.662 283.187C171.935 282.118 189.581 273.963 209.232 262.467C220.327 255.916 230.086 249.5 236.903 244.821C242.785 240.677 246.528 238.003 246.795 237.736C250.004 235.33 253.078 232.255 256.019 228.779C263.505 219.823 269.521 207.925 271.794 197.097C271.794 196.964 271.794 196.83 271.927 196.696C272.061 195.761 272.328 194.825 272.462 194.023V193.622C272.596 193.087 272.596 192.552 272.596 192.151C272.596 191.884 272.997 188.676 273.398 183.462V182.927C273.665 182.526 273.665 182.125 273.665 181.591" fill="url(#paint0_linear)"></path> <defs> <linearGradient id="paint0_linear" x1="150.421" y1="5" x2="150.421" y2="288.512" gradientUnits="userSpaceOnUse"> <stop offset="0.398" stop-color="#1466AC"></stop> <stop offset="0.659" stop-color="#EF4058"></stop> </linearGradient> </defs> </svg> 