<svg width="24" height="24" viewBox="0 0 24 24" fill="none" xmlns="http://www.w3.org/2000/svg">
<path d="M0 4C0 1.79086 1.79086 0 4 0H20C22.2091 0 24 1.79086 24 4V20C24 22.2091 22.2091 24 20 24H4C1.79086 24 0 22.2091 0 20V4Z" fill="url(#paint0_linear_25789_116650)"/>
<path fill-rule="evenodd" clip-rule="evenodd" d="M19 18C19 17.4477 18.5289 17 17.9477 17H6.05226C5.47111 17 5 17.4477 5 18C5 18.5523 5.47111 19 6.05226 19L17.9477 19C18.5289 19 19 18.5523 19 18Z" fill="#2D6ECF"/>
<path d="M13.6564 5.52548C14.3991 4.78283 15.6343 4.81396 16.4153 5.595C17.1964 6.37605 17.2275 7.61126 16.4848 8.35391L10.009 14.8163C9.90557 14.9197 9.77839 14.9967 9.63739 15.0412L6.64642 15.9842C6.2672 16.1038 5.89313 15.7297 6.0127 15.3505L6.95573 12.3595C7.00019 12.2185 7.07714 12.0913 7.18061 11.9878L13.6564 5.52548Z" fill="white"/>
<defs>
<linearGradient id="paint0_linear_25789_116650" x1="12" y1="0" x2="12" y2="24" gradientUnits="userSpaceOnUse">
<stop stop-color="#9AC7F6"/>
<stop offset="0.973958" stop-color="#6BA8FF"/>
</linearGradient>
</defs>
</svg>
