<svg width="96" height="96" viewBox="0 0 96 96" fill="none" xmlns="http://www.w3.org/2000/svg">
<rect width="96" height="96" rx="20.3713" fill="#2E77FF"/>
<path d="M26 19.9999H59L70 31.9999V75.9999H26V19.9999Z" fill="white"/>
<path fill-rule="evenodd" clip-rule="evenodd" d="M37.6975 35.9999C36.76 35.9999 35.9999 36.7599 35.9999 37.6975V38.3023C35.9999 39.2398 36.76 39.9999 37.6975 39.9999H44.3023C45.2399 39.9999 45.9999 39.2398 45.9999 38.3023V37.6975C45.9999 36.7599 45.2399 35.9999 44.3023 35.9999H37.6975ZM36 53.6975C36 52.7599 36.76 51.9999 37.6976 51.9999H54.3023C55.2399 51.9999 55.9999 52.7599 55.9999 53.6975V54.3022C55.9999 55.2398 55.2399 55.9998 54.3023 55.9998H37.6976C36.76 55.9998 36 55.2398 36 54.3022V53.6975ZM36 61.6973C36 60.7597 36.76 59.9997 37.6976 59.9997H48.3023C49.2399 59.9997 49.9999 60.7597 49.9999 61.6973V62.3021C49.9999 63.2396 49.2399 63.9997 48.3023 63.9997H37.6976C36.76 63.9997 36 63.2396 36 62.3021V61.6973Z" fill="#0046C8"/>
<circle cx="70" cy="69.9998" r="20" fill="#C8DBFF"/>
<path fill-rule="evenodd" clip-rule="evenodd" d="M70 61.537V57.9999C70 57.9999 69.4305 58.1942 69.267 58.4996C69.1003 58.8112 69.267 59.4044 69.267 59.4044C69.267 59.4044 68.3936 59.4975 68.0209 59.8568C67.4145 60.4414 67.8475 62.0066 67.8475 62.0066L68.8199 62.3589L67.1 63.9218L66.2618 63.958L63.9163 64.1725C63.9163 64.1725 62.8871 64.7334 62.7435 65.3374C62.551 66.1466 63.9163 67.1674 63.9163 67.1674L64.3561 65.9867L66.4817 66.5726L67.5079 68.407L65.7487 69.2335L66.4817 69.7648C66.4817 69.7648 66.1427 70.4355 65.7487 70.7093C64.9514 71.2634 63.1833 70.7093 63.1833 70.7093L64.3561 68.8793L57.7592 62.3268C57.7592 62.3268 55.4319 66.2962 56 68.8793C56.8375 72.687 59.4488 75.3437 64.3561 75.2547L65.7487 73.3067V75.5499C65.7487 75.5499 61.9813 76.2492 62.3568 77.9761C62.6071 79.1272 64.6551 79.7088 64.6551 79.7088L65.9565 79.4183L64.9619 78.1774L68.0943 76.7895L68.6074 78.5014L65.7487 81.1658L63.9163 81.9253C63.9163 81.9253 65.3387 83.2211 66.4817 83.6962C67.7532 84.2247 70 84.2865 70 84.2865V67.1674C70 67.1674 68.7891 66.1918 68.6074 65.3374C68.4857 64.7656 68.7405 63.8508 68.7405 63.8508L67.1362 63.9202C67.3741 63.8125 68.1793 63.4401 68.6806 63.1107C69.2323 62.7482 70 62.054 70 62.054V61.537ZM63.9896 63.1579C63.9896 63.1579 64.8214 63.4974 65.3822 63.5102C65.9987 63.5242 66.9215 63.1579 66.9215 63.1579V62.0884C66.9215 62.0884 66.0788 61.1525 65.3822 61.1837C64.7343 61.2127 63.9896 62.0884 63.9896 62.0884V63.1579ZM63.623 63.3162L63.0367 62.5407C63.0367 62.5407 63.3466 61.6466 63.0367 61.2482C62.7736 60.9101 62.0105 60.8604 62.0105 60.8604C62.0105 60.8604 60.3562 61.5803 60.0314 62.5407C59.8293 63.1384 60.0314 64.1563 60.0314 64.1563C60.0314 64.1563 60.4774 63.3748 60.8377 62.9285C61.2429 62.4265 62.0105 61.7652 62.0105 61.7652C62.0105 61.7652 61.5906 62.8797 62.0105 63.3162C62.447 63.7701 63.623 63.3162 63.623 63.3162Z" fill="#0046C8"/>
<path fill-rule="evenodd" clip-rule="evenodd" d="M70.0001 61.5371V58C70.0001 58 70.5696 58.1943 70.7331 58.4998C70.8998 58.8113 70.7331 59.4045 70.7331 59.4045C70.7331 59.4045 71.6064 59.4976 71.9791 59.8569C72.5855 60.4415 72.1526 62.0068 72.1526 62.0068L71.1802 62.359L72.9001 63.9219L73.7382 63.9581L76.0838 64.1726C76.0838 64.1726 77.1129 64.7336 77.2566 65.3375C77.449 66.1467 76.0838 67.1675 76.0838 67.1675L75.644 65.9869L73.5183 66.5728L72.4922 68.4072L74.2513 69.2336L73.5183 69.7649C73.5183 69.7649 73.8574 70.4356 74.2513 70.7094C75.0487 71.2635 76.8168 70.7094 76.8168 70.7094L75.644 68.8794L82.2409 62.3269C82.2409 62.3269 84.5681 66.2963 84 68.8794C83.1626 72.6871 80.5513 75.3439 75.644 75.2548L74.2513 73.3068V75.55C74.2513 75.55 78.0188 76.2494 77.6433 77.9762C77.393 79.1273 75.3449 79.709 75.3449 79.709L74.0436 79.4184L75.0382 78.1775L71.9058 76.7896L71.3927 78.5015L74.2513 81.1659L76.0838 81.9254C76.0838 81.9254 74.6614 83.2212 73.5183 83.6963C72.2468 84.2248 70 84.2866 70 84.2866V67.1675C70 67.1675 71.2109 66.1919 71.3927 65.3375C71.5143 64.7657 71.2595 63.8509 71.2595 63.8509L72.8638 63.9203C72.626 63.8127 71.8208 63.4402 71.3195 63.1108C70.7678 62.7483 70.0001 62.0542 70.0001 62.0542V61.5371ZM76.0105 63.1581C76.0105 63.1581 75.1787 63.4975 74.6178 63.5103C74.0013 63.5243 73.0786 63.1581 73.0786 63.1581V62.0885C73.0786 62.0885 73.9212 61.1526 74.6178 61.1838C75.2657 61.2128 76.0105 62.0885 76.0105 62.0885V63.1581ZM76.377 63.3163L76.9634 62.5408C76.9634 62.5408 76.6534 61.6467 76.9634 61.2483C77.2265 60.9102 77.9896 60.8606 77.9896 60.8606C77.9896 60.8606 79.6438 61.5804 79.9686 62.5408C80.1708 63.1385 79.9686 64.1565 79.9686 64.1565C79.9686 64.1565 79.5227 63.375 79.1624 62.9286C78.7572 62.4266 77.9896 61.7653 77.9896 61.7653C77.9896 61.7653 78.4095 62.8798 77.9896 63.3163C77.553 63.7702 76.377 63.3163 76.377 63.3163Z" fill="#0046C8"/>
<path fill-rule="evenodd" clip-rule="evenodd" d="M70 33.9997V32.5515C70 31.6782 69.7113 30.8324 69.1841 30.1615L62.2554 21.3432C61.5867 20.492 60.596 19.9999 59.5513 19.9999H58.0001L58.0002 31.9997C58.0002 33.1043 58.8957 33.9997 60.0002 33.9997H70Z" fill="#C8DBFF"/>
</svg>
