<svg width="167" height="167" viewBox="0 0 167 167" fill="none" xmlns="http://www.w3.org/2000/svg">
<rect width="167" height="167" rx="27.8333" fill="#7856FF"/>
<rect x="102.337" y="56.2268" width="26.7414" height="12.8755" fill="white"/>
<path d="M101.846 87.7489V74.9547H114.444C117.932 74.9547 120.84 73.7081 123.295 71.2149C125.75 68.7217 126.977 65.7035 126.977 62.2261C126.977 58.6831 125.75 55.7306 123.295 53.1718C120.84 50.6786 117.868 49.432 114.444 49.432H101.846V36.7034H114.444C117.868 36.7034 121.098 37.3595 124.199 38.7373C127.3 40.1152 129.949 41.8867 132.21 44.1831C134.471 46.4794 136.216 49.1695 137.572 52.3188C138.929 55.4682 139.575 58.7488 139.575 62.2261C139.575 65.7035 138.929 68.9841 137.572 72.1334C136.216 75.2828 134.471 77.9728 132.21 80.2692C129.949 82.5656 127.3 84.3371 124.199 85.715C121.098 87.0928 117.868 87.7489 114.444 87.7489H101.846Z" fill="white"/>
<path d="M101.288 100.33C105.279 98.002 109.537 96.8047 114.126 96.8047C118.716 96.8047 122.973 98.002 126.965 100.33C130.956 102.658 134.082 105.851 136.477 109.842C138.805 113.834 140.002 118.091 140.002 122.681C140.002 127.27 138.805 131.528 136.477 135.519C134.149 139.51 130.956 142.636 126.965 145.031C122.973 147.426 118.716 148.556 114.126 148.556C109.537 148.556 105.279 147.359 101.288 145.031C97.2972 142.703 94.1708 139.51 91.7761 135.519C89.448 131.528 88.2506 127.27 88.2506 122.681C88.2506 118.091 89.448 113.834 91.7761 109.842C94.1708 105.851 97.2972 102.658 101.288 100.33ZM123.24 113.567C120.712 111.04 117.652 109.709 114.126 109.709C110.601 109.709 107.541 110.973 105.013 113.567C102.486 116.095 101.155 119.155 101.155 122.681C101.155 126.206 102.419 129.199 105.013 131.794C107.541 134.321 110.601 135.585 114.126 135.585C117.652 135.585 120.645 134.321 123.24 131.794C125.767 129.266 127.031 126.206 127.031 122.681C127.098 119.155 125.767 116.095 123.24 113.567Z" fill="white"/>
<path fill-rule="evenodd" clip-rule="evenodd" d="M44.0985 109.961L44.0985 135.484H56.2589C59.7476 135.484 62.6548 134.237 65.1098 131.744C67.5648 129.251 68.7923 126.233 68.7923 122.755C68.7923 119.212 67.5648 116.26 65.1098 113.701C62.6548 111.208 59.683 109.961 56.2589 109.961H44.0985ZM55.4195 148.908C68.0667 148.908 78.5992 139.856 80.8883 127.879C81.2257 126.215 81.3903 124.51 81.3903 122.755C81.3903 119.278 80.7442 115.997 79.3875 112.848C78.0308 109.699 76.2865 107.009 74.0253 104.712C71.7641 102.416 69.1153 100.644 66.0143 99.2666C64.6572 98.6637 63.2755 98.1989 61.8635 97.8669C59.8032 97.3401 57.6441 97.0601 55.4195 97.0601L30.6167 97.0601L30.6167 148.908L55.4195 148.908Z" fill="white"/>
<path d="M49.4802 65.9172V57.7157L65.5707 36.3921H81.6611L62.3261 61.9149L81.6611 87.4376H65.7031L49.4802 65.9172Z" fill="white"/>
<rect x="43.933" y="36.3921" width="51.0456" height="13.3162" transform="rotate(90 43.933 36.3921)" fill="#A1FFBB"/>
<rect x="43.933" y="15.3086" width="12.2065" height="13.3162" rx="6.10327" transform="rotate(90 43.933 15.3086)" fill="#A1FFBB"/>
</svg>
