<svg width="44" height="44" viewBox="0 0 44 44" fill="none" xmlns="http://www.w3.org/2000/svg">
<path d="M0 10.9998C0 4.92462 4.92487 -0.000244141 11 -0.000244141L33 -0.000244141C39.0751 -0.000244141 44 4.92462 44 10.9998V32.9998C44 39.0749 39.0751 43.9998 33 43.9998H11C4.92487 43.9998 0 39.0749 0 32.9998L0 10.9998Z" fill="#00B2FF"/>
<path fill-rule="evenodd" clip-rule="evenodd" d="M11.9165 8.38074L14.4373 10.9998L16.9582 8.38074L19.479 10.9998L21.9998 8.38074L24.5207 10.9998L27.0415 8.38074L29.5623 10.9998L32.0832 8.38074V34.8331H11.9165V8.38074Z" fill="white"/>
<path fill-rule="evenodd" clip-rule="evenodd" d="M16.5002 14.6666C15.9939 14.6666 15.5835 15.077 15.5835 15.5833C15.5835 16.0896 15.9939 16.5 16.5002 16.5H18.3335C18.8398 16.5 19.2502 16.0896 19.2502 15.5833C19.2502 15.077 18.8398 14.6666 18.3335 14.6666H16.5002ZM15.5835 19.25C15.5835 18.7437 15.9939 18.3333 16.5002 18.3333H22.0002C22.5064 18.3333 22.9168 18.7437 22.9168 19.25C22.9168 19.7562 22.5064 20.1666 22.0002 20.1666H16.5002C15.9939 20.1666 15.5835 19.7562 15.5835 19.25ZM24.7502 19.25C24.7502 18.7437 25.1606 18.3333 25.6668 18.3333H27.5002C28.0064 18.3333 28.4168 18.7437 28.4168 19.25C28.4168 19.7562 28.0064 20.1666 27.5002 20.1666H25.6668C25.1606 20.1666 24.7502 19.7562 24.7502 19.25ZM24.7502 15.5833C24.7502 15.077 25.1606 14.6666 25.6668 14.6666H27.5002C28.0064 14.6666 28.4168 15.077 28.4168 15.5833C28.4168 16.0896 28.0064 16.5 27.5002 16.5H25.6668C25.1606 16.5 24.7502 16.0896 24.7502 15.5833ZM16.5002 22C15.9939 22 15.5835 22.4104 15.5835 22.9166C15.5835 23.4229 15.9939 23.8333 16.5002 23.8333H18.3335C18.8398 23.8333 19.2502 23.4229 19.2502 22.9166C19.2502 22.4104 18.8398 22 18.3335 22H16.5002Z" fill="#0040B8"/>
<path d="M35.7498 27.5C35.7498 29.5251 34.1082 31.1667 32.0832 31.1667C30.0581 31.1667 28.4165 29.5251 28.4165 27.5C28.4165 25.475 30.0581 23.8334 32.0832 23.8334C34.1082 23.8334 35.7498 25.475 35.7498 27.5Z" fill="#9DD8FF"/>
<path d="M9.1665 27.5H23.8332L21.0832 33H6.4165L9.1665 27.5Z" fill="#0040B8"/>
</svg>
